<svg width="250" height="250" viewBox="0 0 250 250" fill="none" xmlns="http://www.w3.org/2000/svg">
<path d="M124.864 152.811C166.018 127.013 195.83 141.47 206.948 149.072C207.709 149.593 209.063 148.399 208.586 147.609L124.87 9.01024L40.8079 148.163C39.1645 150.884 39.6307 154.345 42.2324 156.171C52.8927 163.652 83.0142 179.046 124.864 152.811Z" fill="#29A2BB"/>
<path d="M124.864 152.811C166.018 127.013 195.83 141.47 206.948 149.072C207.709 149.593 209.063 148.399 208.586 147.609L124.87 9.01024L124.864 152.811Z" fill="#20859A"/>
<path d="M124.864 241.25L207.249 176.785C209.577 174.963 209.639 171.551 207.166 169.931C195.747 162.455 164.026 147.034 124.864 173.28C94.6529 193.528 68.8699 188.979 53.4201 182.409C52.7946 182.143 51.6365 183.951 52.1718 184.37L124.864 241.25Z" fill="#1B7689"/>
<path d="M124.864 241.25L207.249 176.785C209.577 174.963 209.639 171.551 207.165 169.931C195.747 162.455 164.026 147.034 124.864 173.28V241.25Z" fill="#166070"/>
</svg>