<?xml version="1.0" encoding="UTF-8" standalone="no"?>
<!DOCTYPE svg PUBLIC "-//W3C//DTD SVG 1.1//EN" "http://www.w3.org/Graphics/SVG/1.1/DTD/svg11.dtd">
<svg width="100%" height="100%" viewBox="0 0 140 31" version="1.1" xmlns="http://www.w3.org/2000/svg" xmlns:xlink="http://www.w3.org/1999/xlink" xml:space="preserve" xmlns:serif="http://www.serif.com/" style="fill-rule:evenodd;clip-rule:evenodd;stroke-linejoin:round;stroke-miterlimit:2;">
    <g transform="matrix(1,0,0,1,-19,-71)">
        <path d="M76.489,84.225L76.489,86.758L68.506,86.758L68.506,78.066L71.61,78.066L71.61,84.225L76.489,84.225Z" style="fill:rgb(61,75,65);fill-rule:nonzero;"/>
    </g>
    <g transform="matrix(1,0,0,1,-19,-71)">
        <path d="M85.581,84.546L85.581,86.758L77.489,86.758L77.489,78.066L85.545,78.066L85.545,80.279L80.593,80.279L80.593,81.346L85.296,81.346L85.296,83.382L80.593,83.382L80.593,84.546L85.581,84.546Z" style="fill:rgb(61,75,65);fill-rule:nonzero;"/>
    </g>
    <g transform="matrix(1,0,0,1,-19,-71)">
        <path d="M96.789,78.066L96.789,86.758L92.831,86.758L89.776,81.273L89.776,86.758L87.018,86.758L87.018,78.066L91.103,78.066L94.043,83.455L94.043,78.066L96.789,78.066Z" style="fill:rgb(61,75,65);fill-rule:nonzero;"/>
    </g>
    <g transform="matrix(1,0,0,1,-19,-71)">
        <path d="M102.384,87.019C101.563,87.019 100.793,86.922 100.074,86.728C99.359,86.53 98.735,86.267 98.201,85.94L98.201,83.691C98.751,84.035 99.357,84.308 100.02,84.51C100.682,84.708 101.355,84.807 102.038,84.807C102.531,84.807 102.897,84.762 103.135,84.673C103.374,84.584 103.493,84.443 103.493,84.249C103.493,84.079 103.41,83.944 103.244,83.843C103.079,83.742 102.784,83.655 102.359,83.582L101.123,83.358C100.092,83.172 99.337,82.855 98.856,82.406C98.379,81.958 98.141,81.364 98.141,80.624C98.141,80.063 98.304,79.572 98.632,79.151C98.963,78.727 99.46,78.398 100.123,78.163C100.789,77.925 101.61,77.806 102.584,77.806C103.416,77.806 104.133,77.891 104.735,78.06C105.341,78.23 105.841,78.436 106.233,78.679L106.233,80.836C105.865,80.63 105.396,80.453 104.826,80.303C104.261,80.153 103.646,80.079 102.984,80.079C101.917,80.079 101.383,80.253 101.383,80.6C101.383,80.697 101.412,80.778 101.468,80.842C101.529,80.903 101.632,80.956 101.777,81C101.923,81.045 102.131,81.085 102.402,81.121L103.79,81.346C104.473,81.459 105.03,81.626 105.463,81.849C105.895,82.067 106.218,82.356 106.433,82.715C106.647,83.071 106.754,83.512 106.754,84.037C106.754,84.635 106.572,85.16 106.208,85.613C105.849,86.061 105.337,86.409 104.675,86.655C104.016,86.898 103.252,87.019 102.384,87.019Z" style="fill:rgb(61,75,65);fill-rule:nonzero;"/>
    </g>
    <g transform="matrix(1,0,0,1,-19,-71)">
        <path d="M74.513,89.64C75.265,89.64 75.897,89.774 76.41,90.04C76.928,90.303 77.316,90.675 77.574,91.156C77.837,91.637 77.968,92.2 77.968,92.847C77.968,93.485 77.819,94.049 77.52,94.538C77.225,95.023 76.782,95.403 76.192,95.678C75.602,95.948 74.883,96.084 74.034,96.084L71.61,96.084L71.61,98.345L68.506,98.345L68.506,89.64L74.513,89.64ZM73.222,94.114C73.727,94.114 74.113,94.011 74.38,93.805C74.65,93.595 74.786,93.304 74.786,92.932C74.786,92.572 74.665,92.293 74.422,92.095C74.184,91.893 73.842,91.792 73.398,91.792L71.61,91.792L71.61,94.114L73.222,94.114Z" style="fill:rgb(61,75,65);fill-rule:nonzero;"/>
    </g>
    <g transform="matrix(1,0,0,1,-19,-71)">
        <path d="M84.927,98.345L82.12,94.781L82.12,98.345L79.017,98.345L79.017,89.653L85.139,89.653C85.818,89.653 86.41,89.774 86.915,90.016C87.42,90.259 87.808,90.602 88.079,91.047C88.353,91.487 88.491,92 88.491,92.586C88.491,93.095 88.388,93.552 88.182,93.956C87.976,94.356 87.685,94.677 87.309,94.92C86.933,95.158 86.497,95.298 86,95.338L88.576,98.345L84.927,98.345ZM83.872,93.865C84.329,93.865 84.676,93.776 84.915,93.599C85.153,93.421 85.272,93.162 85.272,92.823C85.272,92.499 85.161,92.255 84.939,92.089C84.721,91.924 84.393,91.841 83.957,91.841L82.12,91.841L82.12,93.865L83.872,93.865Z" style="fill:rgb(61,75,65);fill-rule:nonzero;"/>
    </g>
    <g transform="matrix(1,0,0,1,-19,-71)">
        <path d="M94.983,98.629C93.855,98.629 92.863,98.421 92.006,98.005C91.15,97.589 90.489,97.025 90.024,96.314C89.56,95.603 89.327,94.815 89.327,93.95C89.327,93.069 89.558,92.283 90.018,91.592C90.483,90.897 91.144,90.354 92,89.962C92.857,89.566 93.855,89.368 94.995,89.368C96.126,89.368 97.118,89.566 97.971,89.962C98.828,90.354 99.486,90.897 99.947,91.592C100.412,92.283 100.644,93.069 100.644,93.95C100.644,94.819 100.41,95.609 99.941,96.32C99.476,97.031 98.815,97.595 97.959,98.011C97.102,98.423 96.11,98.629 94.983,98.629ZM94.983,96.108C95.447,96.108 95.855,96.019 96.207,95.841C96.559,95.659 96.829,95.407 97.019,95.084C97.209,94.76 97.304,94.391 97.304,93.974C97.304,93.562 97.209,93.198 97.019,92.883C96.829,92.568 96.559,92.324 96.207,92.15C95.855,91.976 95.447,91.889 94.983,91.889C94.514,91.889 94.104,91.976 93.752,92.15C93.4,92.324 93.128,92.568 92.934,92.883C92.744,93.198 92.649,93.562 92.649,93.974C92.649,94.391 92.744,94.76 92.934,95.084C93.128,95.407 93.4,95.659 93.752,95.841C94.104,96.019 94.514,96.108 94.983,96.108Z" style="fill:rgb(61,75,65);fill-rule:nonzero;"/>
    </g>
    <g transform="matrix(1,0,0,1,-19,-71)">
        <path d="M110.094,92.101L107.136,92.101L107.136,98.345L104.032,98.345L104.032,92.101L101.02,92.101L101.02,89.653L110.094,89.653L110.094,92.101Z" style="fill:rgb(61,75,65);fill-rule:nonzero;"/>
    </g>
    <g transform="matrix(1,0,0,1,-19,-71)">
        <path d="M116.113,98.629C114.985,98.629 113.993,98.421 113.136,98.005C112.28,97.589 111.619,97.025 111.154,96.314C110.69,95.603 110.457,94.815 110.457,93.95C110.457,93.069 110.688,92.283 111.148,91.592C111.613,90.897 112.274,90.354 113.13,89.962C113.987,89.566 114.985,89.368 116.125,89.368C117.256,89.368 118.248,89.566 119.101,89.962C119.958,90.354 120.616,90.897 121.077,91.592C121.542,92.283 121.774,93.069 121.774,93.95C121.774,94.819 121.54,95.609 121.071,96.32C120.606,97.031 119.945,97.595 119.089,98.011C118.232,98.423 117.24,98.629 116.113,98.629ZM116.113,96.108C116.577,96.108 116.985,96.019 117.337,95.841C117.689,95.659 117.959,95.407 118.149,95.084C118.339,94.76 118.434,94.391 118.434,93.974C118.434,93.562 118.339,93.198 118.149,92.883C117.959,92.568 117.689,92.324 117.337,92.15C116.985,91.976 116.577,91.889 116.113,91.889C115.644,91.889 115.234,91.976 114.882,92.15C114.531,92.324 114.258,92.568 114.064,92.883C113.874,93.198 113.779,93.562 113.779,93.974C113.779,94.391 113.874,94.76 114.064,95.084C114.258,95.407 114.531,95.659 114.882,95.841C115.234,96.019 115.644,96.108 116.113,96.108Z" style="fill:rgb(61,75,65);fill-rule:nonzero;"/>
    </g>
    <g transform="matrix(1,0,0,1,-19,-71)">
        <path d="M128.248,98.629C127.068,98.629 126.049,98.432 125.193,98.036C124.34,97.635 123.691,97.09 123.247,96.399C122.802,95.704 122.58,94.92 122.58,94.047C122.58,93.162 122.806,92.366 123.259,91.659C123.712,90.948 124.372,90.388 125.241,89.98C126.11,89.572 127.142,89.368 128.339,89.368C129.07,89.368 129.739,89.44 130.345,89.586C130.955,89.731 131.535,89.941 132.084,90.216L132.084,92.78C131.733,92.534 131.292,92.334 130.763,92.18C130.238,92.027 129.678,91.95 129.084,91.95C128.433,91.95 127.874,92.035 127.405,92.204C126.936,92.374 126.579,92.613 126.332,92.92C126.09,93.223 125.969,93.574 125.969,93.974C125.969,94.378 126.092,94.736 126.338,95.047C126.589,95.354 126.948,95.595 127.417,95.769C127.886,95.938 128.442,96.023 129.084,96.023C129.698,96.023 130.27,95.942 130.799,95.781C131.329,95.615 131.765,95.395 132.109,95.12L132.109,97.623C131.515,97.971 130.915,98.225 130.308,98.387C129.706,98.549 129.019,98.629 128.248,98.629Z" style="fill:rgb(61,75,65);fill-rule:nonzero;"/>
    </g>
    <g transform="matrix(1,0,0,1,-19,-71)">
        <path d="M138.746,98.629C137.619,98.629 136.627,98.421 135.77,98.005C134.913,97.589 134.252,97.025 133.788,96.314C133.323,95.603 133.091,94.815 133.091,93.95C133.091,93.069 133.321,92.283 133.782,91.592C134.246,90.897 134.907,90.354 135.764,89.962C136.62,89.566 137.619,89.368 138.758,89.368C139.89,89.368 140.882,89.566 141.734,89.962C142.591,90.354 143.25,90.897 143.71,91.592C144.175,92.283 144.407,93.069 144.407,93.95C144.407,94.819 144.173,95.609 143.704,96.32C143.24,97.031 142.579,97.595 141.722,98.011C140.865,98.423 139.873,98.629 138.746,98.629ZM138.746,96.108C139.211,96.108 139.619,96.019 139.97,95.841C140.322,95.659 140.593,95.407 140.783,95.084C140.973,94.76 141.068,94.391 141.068,93.974C141.068,93.562 140.973,93.198 140.783,92.883C140.593,92.568 140.322,92.324 139.97,92.15C139.619,91.976 139.211,91.889 138.746,91.889C138.277,91.889 137.867,91.976 137.516,92.15C137.164,92.324 136.891,92.568 136.697,92.883C136.507,93.198 136.412,93.562 136.412,93.974C136.412,94.391 136.507,94.76 136.697,95.084C136.891,95.407 137.164,95.659 137.516,95.841C137.867,96.019 138.277,96.108 138.746,96.108Z" style="fill:rgb(61,75,65);fill-rule:nonzero;"/>
    </g>
    <g transform="matrix(1,0,0,1,-19,-71)">
        <path d="M153.615,95.811L153.615,98.345L145.632,98.345L145.632,89.653L148.735,89.653L148.735,95.811L153.615,95.811Z" style="fill:rgb(61,75,65);fill-rule:nonzero;"/>
    </g>
    <g transform="matrix(1,0,0,1,-19,-71)">
        <path d="M49.207,82.319C50.768,81.023 52.509,80.53 54.178,80.654C55.959,80.787 57.607,81.618 58.838,82.825C60.069,84.032 60.915,85.647 61.05,87.389C61.187,89.148 60.595,90.989 59.036,92.606C58.893,92.754 58.747,92.901 58.599,93.046C51.526,99.982 42.131,100 42.035,100L42.034,100C41.986,100 32.561,100 25.47,93.046L25.469,93.044C25.322,92.9 25.178,92.754 25.036,92.608L25.035,92.607C23.475,90.992 22.883,89.151 23.019,87.392C23.154,85.65 23.999,84.035 25.229,82.828C26.46,81.62 28.108,80.789 29.889,80.655C31.558,80.53 33.3,81.022 34.861,82.318C35.029,80.32 35.904,78.765 37.173,77.696C38.527,76.556 40.292,76 42.034,76C43.777,76 45.541,76.556 46.895,77.696C48.165,78.765 49.04,80.32 49.207,82.319ZM42.358,99.297L42.358,99.288L42.358,99.288L42.358,99.297ZM41.71,99.297L41.71,99.288L41.711,99.288L41.71,99.297ZM47.348,89.667C47.154,89.667 47.087,89.941 47.211,90.086C47.429,90.343 47.561,90.674 47.561,91.035C47.561,91.854 46.884,92.518 46.049,92.518C45.214,92.518 44.537,91.854 44.537,91.035C44.537,90.991 44.478,90.969 44.452,91.005C44.214,91.326 44.053,91.687 43.986,92.065C43.949,92.278 43.772,92.455 43.55,92.455L43.428,92.455C43.138,92.455 42.899,92.225 42.942,91.945C43.235,90.032 45.158,88.644 47.348,88.644C49.538,88.644 51.461,90.032 51.754,91.945C51.797,92.225 51.558,92.455 51.268,92.455C50.978,92.455 50.749,92.224 50.686,91.948C50.399,90.694 49.07,89.667 47.348,89.667ZM33.92,91.035C33.92,90.977 33.844,90.946 33.808,90.992C33.553,91.318 33.38,91.688 33.306,92.077C33.263,92.307 33.072,92.498 32.832,92.498L32.742,92.498C32.452,92.498 32.213,92.268 32.255,91.989C32.549,90.074 34.472,88.688 36.662,88.688C38.852,88.688 40.775,90.074 41.068,91.989C41.111,92.268 40.872,92.498 40.582,92.498C40.292,92.498 40.063,92.267 40,91.991C39.713,90.736 38.384,89.71 36.662,89.71C36.505,89.71 36.448,89.926 36.553,90.039C36.796,90.302 36.945,90.651 36.945,91.035C36.945,91.854 36.268,92.518 35.433,92.518C34.597,92.518 33.92,91.854 33.92,91.035ZM43.716,94.611C43.921,94.411 44.238,94.314 44.492,94.449C44.746,94.585 44.843,94.899 44.66,95.118C44.063,95.83 43.096,96.281 42.03,96.281C40.965,96.281 39.996,95.835 39.398,95.117C39.216,94.898 39.313,94.584 39.568,94.449C39.823,94.315 40.139,94.413 40.344,94.613C40.738,94.998 41.336,95.259 42.03,95.259C42.723,95.259 43.321,94.996 43.716,94.611Z" style="fill:rgb(61,75,65);"/>
    </g>
</svg>
