<?xml version="1.0" encoding="utf-8"?>
<!-- Generator: Adobe Illustrator 24.3.0, SVG Export Plug-In . SVG Version: 6.00 Build 0)  -->
<svg version="1.0" id="katman_1" xmlns="http://www.w3.org/2000/svg" xmlns:xlink="http://www.w3.org/1999/xlink" x="0px" y="0px"
	 viewBox="0 0 532 396" style="enable-background:new 0 0 532 396;" xml:space="preserve">
<style type="text/css">
	.st0{clip-path:url(#SVGID_2_);}
	.st1{fill:#3D3D3D;}
	.st2{fill:#5A0FC8;}
</style>
<g>
	<defs>
		<rect id="SVGID_1_" x="44.17" y="114.19" width="444.51" height="167.36"/>
	</defs>
	<clipPath id="SVGID_2_">
		<use xlink:href="#SVGID_1_"  style="overflow:visible;"/>
	</clipPath>
	<g class="st0">
		<path class="st1" d="M371.32,251.58l12.84-32.47h37.08l-17.6-49.26l22.01-55.65l63.03,167.36H442.2l-10.77-29.98H371.32z"/>
		<path class="st2" d="M331.66,281.55l67.48-167.36h-44.74l-46.16,108.15l-32.82-108.15h-34.39l-35.24,108.15l-24.86-49.28
			l-22.49,69.3l22.84,39.19h44.03l31.85-96.99l30.37,96.99H331.66z"/>
		<path class="st1" d="M86.64,224.1h27.55c8.35,0,15.78-0.93,22.3-2.8l7.13-21.95l19.92-61.36c-1.52-2.4-3.25-4.68-5.2-6.82
			c-10.23-11.32-25.19-16.98-44.88-16.98H44.17v167.36h42.46V224.1z M123.11,152.7c3.99,4.02,5.99,9.4,5.99,16.14
			c0,6.79-1.76,12.18-5.27,16.16c-3.85,4.42-10.94,6.63-21.27,6.63H86.64v-44.96h16.04C112.31,146.67,119.12,148.68,123.11,152.7z"
			/>
	</g>
</g>
</svg>
