<svg width="500" height="500" viewBox="0 0 500 500" fill="none" xmlns="http://www.w3.org/2000/svg">
<path d="M249.971 298.257C322.444 252.826 374.945 278.285 394.523 291.672C395.864 292.589 398.248 290.486 397.408 289.096L249.982 45.0181L101.945 290.071C99.0507 294.862 99.8718 300.958 104.453 304.173C123.227 317.347 176.271 344.456 249.971 298.257Z" fill="#CFFAFE"/>
<path d="M249.97 298.257C322.444 252.826 374.944 278.285 394.523 291.672C395.864 292.589 398.248 290.486 397.408 289.096L249.981 45.0181L249.97 298.257Z" fill="#A5F3FC"/>
<path d="M249.971 454L395.054 340.475C399.154 337.267 399.262 331.258 394.906 328.406C374.799 315.239 318.936 288.082 249.971 334.303C196.768 369.961 151.363 361.949 124.155 350.379C123.054 349.91 121.014 353.094 121.957 353.832L249.971 454Z" fill="#67E8F9"/>
<path d="M249.97 454L395.054 340.475C399.154 337.267 399.261 331.258 394.906 328.406C374.798 315.239 318.936 288.082 249.97 334.303V454Z" fill="#22D3EE"/>
</svg>